<svg width="32" height="32" viewBox="0 0 32 32" fill="none" xmlns="http://www.w3.org/2000/svg">
  <defs>
    <linearGradient id="logo-gradient" x1="0%" y1="0%" x2="100%" y2="100%">
      <stop offset="0%" style="stop-color:#06b6d4"/>
      <stop offset="100%" style="stop-color:#a855f7"/>
    </linearGradient>
  </defs>
  <!-- Rounded square background -->
  <rect width="32" height="32" rx="8" fill="url(#logo-gradient)"/>
  <!-- Sparkles icon (white stroke) - Lucide icon style -->
  <g transform="translate(4, 4)">
    <path d="m12 3-1.912 5.813a2 2 0 0 1-1.275 1.275L3 12l5.813 1.912a2 2 0 0 1 1.275 1.275L12 21l1.912-5.813a2 2 0 0 1 1.275-1.275L21 12l-5.813-1.912a2 2 0 0 1-1.275-1.275L12 3Z" stroke="white" stroke-width="2" stroke-linecap="round" stroke-linejoin="round" fill="none"/>
    <path d="M5 3v4" stroke="white" stroke-width="2" stroke-linecap="round"/>
    <path d="M19 17v4" stroke="white" stroke-width="2" stroke-linecap="round"/>
    <path d="M3 5h4" stroke="white" stroke-width="2" stroke-linecap="round"/>
    <path d="M17 19h4" stroke="white" stroke-width="2" stroke-linecap="round"/>
  </g>
</svg>
